<?xml version="1.0" encoding="utf-8"?>
<!-- Generator: Adobe Illustrator 23.0.1, SVG Export Plug-In . SVG Version: 6.00 Build 0)  -->
<svg version="1.1" id="Calque_1" xmlns="http://www.w3.org/2000/svg" xmlns:xlink="http://www.w3.org/1999/xlink" x="0px" y="0px"
	 viewBox="0 0 7937 11905.5" style="enable-background:new 0 0 7937 11905.5;" xml:space="preserve">
<style type="text/css">
	.st0{fill:#001884;}
	.st1{fill:#00270C;}
	.st2{fill:#26120B;}
	.st3{fill:#0F0700;}
	.st4{fill:#FFF4A5;}
	.st5{opacity:0.3;fill:#001884;enable-background:new    ;}
	.st6{fill:url(#SVGID_1_);enable-background:new    ;}
</style>
<rect y="0" class="st0" width="7937" height="11905.2"/>
<title>fond</title>
<rect y="11093.9" class="st1" width="7937" height="811.2"/>
<polygon class="st2" points="5083,9860.9 3914.9,9532.1 2768.2,9860.9 2768.2,11248.2 5083,11248.2 "/>
<polygon class="st3" points="2627.6,9948.6 3914.9,9532.1 5209.4,9948.6 5209.4,9906.6 3914.9,9480 2627.6,9897 "/>
<rect x="3233.6" y="10287.2" class="st3" width="441" height="960.9"/>
<rect x="4375.1" y="10287.2" class="st3" width="225.2" height="225.2"/>
<polygon class="st3" points="4375.1,10553.5 4375.1,10778.7 4334.1,10778.7 4334.1,10553.5 4108.9,10553.5 4108.9,10512.5 
	4334.1,10512.5 4334.1,10287.2 4108.9,10287.2 4108.9,10778.7 4600.4,10778.7 4600.4,10553.5 "/>
<path class="st4" d="M3414.6,10975.8c6.4-7.6,17-7.3,23.3,0C3430.3,10982.2,3421.6,10982.8,3414.6,10975.8z"/>
<path class="st4" d="M3455,10975.8c6.4-7.6,17-7.3,23.3,0C3470.7,10982.2,3462,10982.8,3455,10975.8z"/>
<rect y="0" class="st5" width="7937" height="11905.2"/>
<circle class="st4" cx="3634.4" cy="6929.1" r="25.3"/>
<circle class="st4" cx="1847.8" cy="7250.6" r="25.3"/>
<circle class="st4" cx="3155.4" cy="6562.1" r="25.3"/>
<circle class="st4" cx="2529" cy="7846.9" r="25.3"/>
<circle class="st4" cx="3280" cy="7947.2" r="25.3"/>
<circle class="st4" cx="1797.2" cy="7947.2" r="25.3"/>
<circle class="st4" cx="2311.4" cy="8711.4" r="25.3"/>
<circle class="st4" cx="1335.5" cy="8952.5" r="25.3"/>
<circle class="st4" cx="5331.9" cy="9171.7" r="25.3"/>
<circle class="st4" cx="3583.9" cy="8264.6" r="25.3"/>
<ellipse transform="matrix(0.9239 -0.3827 0.3827 0.9239 -2902.1208 1002.6645)" class="st4" cx="1069.3" cy="7796.3" rx="25.3" ry="25.3"/>
<circle class="st4" cx="3050.1" cy="7358.5" r="50"/>
<circle class="st4" cx="1634.2" cy="7497.4" r="50"/>
<circle class="st4" cx="2604.3" cy="8070.6" r="50"/>
<circle class="st4" cx="1410.8" cy="8661.4" r="50"/>
<circle class="st4" cx="3292.5" cy="7509.9" r="12.5"/>
<circle class="st4" cx="1955.9" cy="7408.5" r="12.5"/>
<circle class="st4" cx="2273.6" cy="6599.9" r="12.5"/>
<circle class="st4" cx="1054.1" cy="4980" r="25.3"/>
<circle class="st4" cx="2840.7" cy="5301.5" r="25.3"/>
<circle class="st4" cx="1533.2" cy="4613" r="25.3"/>
<circle class="st4" cx="2159.5" cy="5897.7" r="25.3"/>
<circle class="st4" cx="1408.6" cy="5998" r="25.3"/>
<circle class="st4" cx="2891.3" cy="5998" r="25.3"/>
<ellipse transform="matrix(0.3827 -0.9239 0.9239 0.3827 -3167.8936 6953.2671)" class="st4" cx="3619.2" cy="5847.2" rx="25.3" ry="25.3"/>
<circle class="st4" cx="1638.4" cy="5409.4" r="50"/>
<circle class="st4" cx="3054.3" cy="5548.3" r="50"/>
<circle class="st4" cx="2084.2" cy="6121.4" r="50"/>
<circle class="st4" cx="1396.1" cy="5560.8" r="12.5"/>
<circle class="st4" cx="2732.7" cy="5459.4" r="12.5"/>
<circle class="st4" cx="2414.9" cy="4650.8" r="12.5"/>
<circle class="st4" cx="2400.5" cy="8277.4" r="12.5"/>
<circle class="st4" cx="3257.6" cy="2139.1" r="25.3"/>
<circle class="st4" cx="2506.6" cy="2239.4" r="25.3"/>
<circle class="st4" cx="2840.7" cy="3008.1" r="25.3"/>
<circle class="st4" cx="2326.6" cy="3772.4" r="25.3"/>
<circle class="st4" cx="3302.4" cy="4013.5" r="25.3"/>
<circle class="st4" cx="1054.1" cy="4285.1" r="25.3"/>
<circle class="st4" cx="1348.9" cy="3806.1" r="25.3"/>
<circle class="st4" cx="1828" cy="3478.2" r="25.3"/>
<circle class="st4" cx="2202.7" cy="2556.9" r="25.3"/>
<ellipse transform="matrix(0.3827 -0.9239 0.9239 0.3827 -436.7772 5060.8203)" class="st4" cx="3568.6" cy="2857.3" rx="25.3" ry="25.3"/>
<circle class="st4" cx="3182.3" cy="2362.8" r="50"/>
<circle class="st4" cx="3227.1" cy="3722.4" r="50"/>
<circle class="st4" cx="3386.1" cy="2569.7" r="12.5"/>
<circle class="st4" cx="4216.8" cy="4088.6" r="25.3"/>
<circle class="st4" cx="6003.4" cy="3767.1" r="25.3"/>
<circle class="st4" cx="4695.8" cy="4455.6" r="25.3"/>
<circle class="st4" cx="5322.2" cy="3170.8" r="25.3"/>
<circle class="st4" cx="4571.2" cy="3070.6" r="25.3"/>
<circle class="st4" cx="6054" cy="3070.6" r="25.3"/>
<circle class="st4" cx="5539.8" cy="2306.3" r="25.3"/>
<circle class="st4" cx="6515.7" cy="2065.2" r="25.3"/>
<circle class="st4" cx="4267.3" cy="2753.1" r="25.3"/>
<ellipse transform="matrix(0.9239 -0.3827 0.3827 0.9239 -716.5385 2840.5315)" class="st4" cx="6781.9" cy="3221.4" rx="25.3" ry="25.3"/>
<circle class="st4" cx="4801.1" cy="3659.2" r="50"/>
<circle class="st4" cx="6217" cy="3520.3" r="50"/>
<circle class="st4" cx="5246.9" cy="2947.1" r="50"/>
<circle class="st4" cx="6440.4" cy="2356.3" r="50"/>
<circle class="st4" cx="4558.7" cy="3507.8" r="12.5"/>
<circle class="st4" cx="5895.3" cy="3609.2" r="12.5"/>
<circle class="st4" cx="5577.6" cy="4417.8" r="12.5"/>
<circle class="st4" cx="6797.1" cy="6037.7" r="25.3"/>
<circle class="st4" cx="5010.5" cy="5716.2" r="25.3"/>
<circle class="st4" cx="6318" cy="6404.7" r="25.3"/>
<circle class="st4" cx="5691.7" cy="5120" r="25.3"/>
<circle class="st4" cx="6442.6" cy="5019.7" r="25.3"/>
<circle class="st4" cx="4959.9" cy="5019.7" r="25.3"/>
<ellipse transform="matrix(0.3827 -0.9239 0.9239 0.3827 -2164.4727 7101.7129)" class="st4" cx="4232" cy="5170.5" rx="25.3" ry="25.3"/>
<circle class="st4" cx="6212.8" cy="5608.3" r="50"/>
<circle class="st4" cx="4796.9" cy="5469.4" r="50"/>
<circle class="st4" cx="5767" cy="4896.3" r="50"/>
<circle class="st4" cx="6455.1" cy="5456.9" r="12.5"/>
<circle class="st4" cx="5118.5" cy="5558.3" r="12.5"/>
<circle class="st4" cx="5436.3" cy="6367" r="12.5"/>
<circle class="st4" cx="5450.7" cy="2740.3" r="12.5"/>
<circle class="st4" cx="4593.6" cy="8878.6" r="25.3"/>
<circle class="st4" cx="5344.6" cy="8778.3" r="25.3"/>
<circle class="st4" cx="5010.5" cy="8009.6" r="25.3"/>
<circle class="st4" cx="5524.6" cy="7245.4" r="25.3"/>
<circle class="st4" cx="4548.8" cy="7004.3" r="25.3"/>
<circle class="st4" cx="6797.1" cy="6732.6" r="25.3"/>
<circle class="st4" cx="6502.3" cy="7211.6" r="25.3"/>
<circle class="st4" cx="6023.2" cy="7539.5" r="25.3"/>
<circle class="st4" cx="5648.5" cy="8460.8" r="25.3"/>
<ellipse transform="matrix(0.3827 -0.9239 0.9239 0.3827 -4895.5889 8994.1602)" class="st4" cx="4282.6" cy="8160.5" rx="25.3" ry="25.3"/>
<circle class="st4" cx="4668.9" cy="8654.9" r="50"/>
<circle class="st4" cx="4624.1" cy="7295.3" r="50"/>
<circle class="st4" cx="4465.1" cy="8448" r="12.5"/>
<linearGradient id="SVGID_1_" gradientUnits="userSpaceOnUse" x1="3968.5039" y1="7322.168" x2="3968.5039" y2="177.1854">
	<stop  offset="1.158927e-02" style="stop-color:#001884;stop-opacity:0"/>
	<stop  offset="0.1416" style="stop-color:#011876;stop-opacity:0.1437"/>
	<stop  offset="0.4389" style="stop-color:#03175C;stop-opacity:0.4722"/>
	<stop  offset="0.7064" style="stop-color:#04164D;stop-opacity:0.7678"/>
	<stop  offset="0.9165" style="stop-color:#041647"/>
</linearGradient>
<rect y="0" class="st6" width="7937" height="11905.2"/>
</svg>
