<?xml version="1.0" encoding="utf-8"?>
<!-- Generator: Adobe Illustrator 23.0.1, SVG Export Plug-In . SVG Version: 6.00 Build 0)  -->
<svg version="1.1" id="Calque_1" xmlns="http://www.w3.org/2000/svg" xmlns:xlink="http://www.w3.org/1999/xlink" x="0px" y="0px"
	 viewBox="0 0 7937 11905.5" style="enable-background:new 0 0 7937 11905.5;" xml:space="preserve">
<style type="text/css">
	.st0{fill:#001884;}
	.st1{fill:#00270C;}
	.st2{fill:#26120B;}
	.st3{fill:#0F0700;}
	.st4{opacity:0.3;fill:#001884;enable-background:new    ;}
	.st5{fill:#FFF4A5;}
	.st6{fill:none;stroke:#000000;stroke-width:25.5357;stroke-linecap:round;stroke-miterlimit:10;}
	.st7{opacity:0.5;fill:#FFF4A5;enable-background:new    ;}
	.st8{fill:url(#SVGID_1_);enable-background:new    ;}
</style>
<title>fond</title>
<rect class="st0" width="7937" height="11905.2"/>
<rect y="11093.9" class="st1" width="7937" height="811.2"/>
<polygon class="st2" points="5083,9860.9 3914.9,9532.1 2768.2,9860.9 2768.2,11248.2 5083,11248.2 "/>
<polygon class="st3" points="2627.6,9948.6 3914.9,9532.1 5209.4,9948.6 5209.4,9906.6 3914.9,9480 2627.6,9897 "/>
<rect class="st4" width="7937" height="11905.2"/>
<rect x="3233.6" y="10287.2" class="st5" width="441" height="960.9"/>
<path d="M3446.3,11248.2h-68c-43.8-90.6,5.9-186.5,23.9-226c-31.4-26.6-12.7-70.1-12.7-70.1v-38.3l21.2,22.5
	c8-2.9,21.7-7.4,35.6-7.4s27.7,4.4,35.7,7.4l21.2-22.5v38.3c0,0,17.2,46.6-12.7,70.1c18,39.6,67,133.1,25.2,226L3446.3,11248.2z"/>
<path class="st6" d="M3491.5,11223c59.3,0,79.6-37.1,74.2-75c-5.5-38.5-17.3-84.4,26.9-103"/>
<path class="st5" d="M3414.6,10975.8c6.4-7.6,17-7.3,23.3,0C3430.3,10982.2,3421.6,10982.8,3414.6,10975.8z"/>
<path class="st5" d="M3455,10975.8c6.4-7.6,17-7.3,23.3,0C3470.7,10982.2,3462,10982.8,3455,10975.8z"/>
<rect x="4375.1" y="10287.2" class="st5" width="225.2" height="225.2"/>
<polygon class="st5" points="4375.1,10553.5 4375.1,10778.7 4334.1,10778.7 4334.1,10553.5 4108.9,10553.5 4108.9,10512.5 
	4334.1,10512.5 4334.1,10287.2 4108.9,10287.2 4108.9,10778.7 4600.4,10778.7 4600.4,10553.5 "/>
<path class="st7" d="M3674.6,11248.2h-157.3c2.3,5.1,4.3,10.4,6.1,15.9c14.5,3.6,29.1,10.7,40.3,23.6c14,16.1,19.8,38.3,16.3,62.5
	c-4.4,30.4-10.5,102.9,26.2,118.4l0,0c0.1,0,0.1,0,0.2,0.1c6.5,2.8,9.5,10.3,6.7,16.8s-10.3,9.5-16.8,6.7
	c-23.7-10-38.3-33.1-43.3-68.5c-3.8-27.1-1.2-56.9,1.7-77c2.4-16.7-1.3-31.7-10.3-42.1c-3.8-4.4-8.5-7.9-13.7-10.5
	c16.4,94.7-16.7,223-32,256.7c29.9,23.4,12.6,70.1,12.6,70.1v38.3l-21.1-22.5c-8,2.9-21.8,7.3-35.7,7.3s-27.6-4.4-35.6-7.3
	l-21.1,22.5v-38.3c0,0-18.8-43.5,12.6-70.1c-18-39.6-74.1-211.8-30.4-302.4h-146.3l-559.1,657H4047L3674.6,11248.2z"/>
<circle class="st5" cx="3634.4" cy="6929.1" r="25.3"/>
<circle class="st5" cx="1847.8" cy="7250.6" r="25.3"/>
<circle class="st5" cx="3155.4" cy="6562.1" r="25.3"/>
<circle class="st5" cx="2529" cy="7846.9" r="25.3"/>
<circle class="st5" cx="3280" cy="7947.2" r="25.3"/>
<circle class="st5" cx="1797.2" cy="7947.2" r="25.3"/>
<circle class="st5" cx="2311.4" cy="8711.4" r="25.3"/>
<circle class="st5" cx="1335.5" cy="8952.5" r="25.3"/>
<circle class="st5" cx="5331.9" cy="9171.7" r="25.3"/>
<circle class="st5" cx="3583.9" cy="8264.6" r="25.3"/>
<ellipse transform="matrix(0.9239 -0.3827 0.3827 0.9239 -2902.1208 1002.6645)" class="st5" cx="1069.3" cy="7796.3" rx="25.3" ry="25.3"/>
<circle class="st5" cx="3050.1" cy="7358.5" r="50"/>
<circle class="st5" cx="1634.2" cy="7497.4" r="50"/>
<circle class="st5" cx="2604.3" cy="8070.6" r="50"/>
<circle class="st5" cx="1410.8" cy="8661.4" r="50"/>
<circle class="st5" cx="3292.5" cy="7509.9" r="12.5"/>
<circle class="st5" cx="1955.9" cy="7408.5" r="12.5"/>
<circle class="st5" cx="2273.6" cy="6599.9" r="12.5"/>
<circle class="st5" cx="1054.1" cy="4980" r="25.3"/>
<circle class="st5" cx="2840.7" cy="5301.5" r="25.3"/>
<circle class="st5" cx="1533.2" cy="4613" r="25.3"/>
<circle class="st5" cx="2159.5" cy="5897.7" r="25.3"/>
<circle class="st5" cx="1408.6" cy="5998" r="25.3"/>
<circle class="st5" cx="2891.3" cy="5998" r="25.3"/>
<ellipse transform="matrix(0.3827 -0.9239 0.9239 0.3827 -3167.8936 6953.2671)" class="st5" cx="3619.2" cy="5847.2" rx="25.3" ry="25.3"/>
<circle class="st5" cx="1638.4" cy="5409.4" r="50"/>
<circle class="st5" cx="3054.3" cy="5548.3" r="50"/>
<circle class="st5" cx="2084.2" cy="6121.4" r="50"/>
<circle class="st5" cx="1396.1" cy="5560.8" r="12.5"/>
<circle class="st5" cx="2732.7" cy="5459.4" r="12.5"/>
<circle class="st5" cx="2414.9" cy="4650.8" r="12.5"/>
<circle class="st5" cx="2400.5" cy="8277.4" r="12.5"/>
<circle class="st5" cx="3257.6" cy="2139.1" r="25.3"/>
<circle class="st5" cx="2506.6" cy="2239.4" r="25.3"/>
<circle class="st5" cx="2840.7" cy="3008.1" r="25.3"/>
<circle class="st5" cx="2326.6" cy="3772.4" r="25.3"/>
<circle class="st5" cx="3302.4" cy="4013.5" r="25.3"/>
<circle class="st5" cx="1054.1" cy="4285.1" r="25.3"/>
<circle class="st5" cx="1348.9" cy="3806.1" r="25.3"/>
<circle class="st5" cx="1828" cy="3478.2" r="25.3"/>
<circle class="st5" cx="2202.7" cy="2556.9" r="25.3"/>
<ellipse transform="matrix(0.3827 -0.9239 0.9239 0.3827 -436.7772 5060.8203)" class="st5" cx="3568.6" cy="2857.3" rx="25.3" ry="25.3"/>
<circle class="st5" cx="3182.3" cy="2362.8" r="50"/>
<circle class="st5" cx="3227.1" cy="3722.4" r="50"/>
<circle class="st5" cx="3386.1" cy="2569.7" r="12.5"/>
<circle class="st5" cx="4216.8" cy="4088.6" r="25.3"/>
<circle class="st5" cx="6003.4" cy="3767.1" r="25.3"/>
<circle class="st5" cx="4695.8" cy="4455.6" r="25.3"/>
<circle class="st5" cx="5322.2" cy="3170.8" r="25.3"/>
<circle class="st5" cx="4571.2" cy="3070.6" r="25.3"/>
<circle class="st5" cx="6054" cy="3070.6" r="25.3"/>
<circle class="st5" cx="5539.8" cy="2306.3" r="25.3"/>
<circle class="st5" cx="6515.7" cy="2065.2" r="25.3"/>
<circle class="st5" cx="4267.3" cy="2753.1" r="25.3"/>
<ellipse transform="matrix(0.9239 -0.3827 0.3827 0.9239 -716.5385 2840.5315)" class="st5" cx="6781.9" cy="3221.4" rx="25.3" ry="25.3"/>
<circle class="st5" cx="4801.1" cy="3659.2" r="50"/>
<circle class="st5" cx="6217" cy="3520.3" r="50"/>
<circle class="st5" cx="5246.9" cy="2947.1" r="50"/>
<circle class="st5" cx="6440.4" cy="2356.3" r="50"/>
<circle class="st5" cx="4558.7" cy="3507.8" r="12.5"/>
<circle class="st5" cx="5895.3" cy="3609.2" r="12.5"/>
<circle class="st5" cx="5577.6" cy="4417.8" r="12.5"/>
<circle class="st5" cx="6797.1" cy="6037.7" r="25.3"/>
<circle class="st5" cx="5010.5" cy="5716.2" r="25.3"/>
<circle class="st5" cx="6318" cy="6404.7" r="25.3"/>
<circle class="st5" cx="5691.7" cy="5120" r="25.3"/>
<circle class="st5" cx="6442.6" cy="5019.7" r="25.3"/>
<circle class="st5" cx="4959.9" cy="5019.7" r="25.3"/>
<ellipse transform="matrix(0.3827 -0.9239 0.9239 0.3827 -2164.4727 7101.7129)" class="st5" cx="4232" cy="5170.5" rx="25.3" ry="25.3"/>
<circle class="st5" cx="6212.8" cy="5608.3" r="50"/>
<circle class="st5" cx="4796.9" cy="5469.4" r="50"/>
<circle class="st5" cx="5767" cy="4896.3" r="50"/>
<circle class="st5" cx="6455.1" cy="5456.9" r="12.5"/>
<circle class="st5" cx="5118.5" cy="5558.3" r="12.5"/>
<circle class="st5" cx="5436.3" cy="6367" r="12.5"/>
<circle class="st5" cx="5450.7" cy="2740.3" r="12.5"/>
<circle class="st5" cx="4593.6" cy="8878.6" r="25.3"/>
<circle class="st5" cx="5344.6" cy="8778.3" r="25.3"/>
<circle class="st5" cx="5010.5" cy="8009.6" r="25.3"/>
<circle class="st5" cx="5524.6" cy="7245.4" r="25.3"/>
<circle class="st5" cx="4548.8" cy="7004.3" r="25.3"/>
<circle class="st5" cx="6797.1" cy="6732.6" r="25.3"/>
<circle class="st5" cx="6502.3" cy="7211.6" r="25.3"/>
<circle class="st5" cx="6023.2" cy="7539.5" r="25.3"/>
<circle class="st5" cx="5648.5" cy="8460.8" r="25.3"/>
<ellipse transform="matrix(0.3827 -0.9239 0.9239 0.3827 -4895.5889 8994.1592)" class="st5" cx="4282.6" cy="8160.5" rx="25.3" ry="25.3"/>
<circle class="st5" cx="4668.9" cy="8654.9" r="50"/>
<circle class="st5" cx="4624.1" cy="7295.3" r="50"/>
<circle class="st5" cx="4465.1" cy="8448" r="12.5"/>
<linearGradient id="SVGID_1_" gradientUnits="userSpaceOnUse" x1="3968.5039" y1="7322.168" x2="3968.5039" y2="177.1854">
	<stop  offset="1.158927e-02" style="stop-color:#001884;stop-opacity:0"/>
	<stop  offset="0.1416" style="stop-color:#011876;stop-opacity:0.1437"/>
	<stop  offset="0.4389" style="stop-color:#03175C;stop-opacity:0.4722"/>
	<stop  offset="0.7064" style="stop-color:#04164D;stop-opacity:0.7678"/>
	<stop  offset="0.9165" style="stop-color:#041647"/>
</linearGradient>
<rect y="0" class="st8" width="7937" height="11905.2"/>
</svg>
